<?xml version="1.0" encoding="UTF-8" standalone="no"?>
<svg
   style="enable-background:new 0 0 240 234"
   version="1.1"
   viewBox="0 0 240 234"
   xml:space="preserve"
   id="svg3"
   sodipodi:docname="Adobe InDesign CC logo.svg"
   inkscape:version="1.3.2 (091e20e, 2023-11-25, custom)"
   xmlns:inkscape="http://www.inkscape.org/namespaces/inkscape"
   xmlns:sodipodi="http://sodipodi.sourceforge.net/DTD/sodipodi-0.dtd"
   xmlns="http://www.w3.org/2000/svg"
   xmlns:svg="http://www.w3.org/2000/svg"><defs
   id="defs3" /><sodipodi:namedview
   id="namedview3"
   pagecolor="#ffffff"
   bordercolor="#000000"
   borderopacity="0.25"
   inkscape:showpageshadow="2"
   inkscape:pageopacity="0.0"
   inkscape:pagecheckerboard="0"
   inkscape:deskcolor="#d1d1d1"
   inkscape:zoom="5.0128205"
   inkscape:cx="119.99233"
   inkscape:cy="117"
   inkscape:window-width="2560"
   inkscape:window-height="1369"
   inkscape:window-x="1432"
   inkscape:window-y="676"
   inkscape:window-maximized="1"
   inkscape:current-layer="vlpa" />
<title
   id="title1">Adobe InDesign CC logo</title>
<style
   type="text/css"
   id="style1">
	.st0{fill:#49021F;}
	.st1{fill:#FF3366;}
</style>
	
	<g
   id="vlpa">
		<g
   id="vlpb"
   style="fill:#ffffff;fill-opacity:1">
			<path
   class="st1"
   d="m87.2 61.2v103c0 1.1-0.5 1.6-1.4 1.6h-19.6c-0.9 0-1.3-0.5-1.3-1.6v-103c0-0.9 0.5-1.3 1.4-1.3h19.5c0.6-0.1 1.2 0.3 1.3 1 0.1 0.1 0.1 0.2 0.1 0.3z"
   id="path2"
   style="fill:#ffffff;fill-opacity:1" />
			<path
   class="st1"
   d="m145 167c-7.4 0.1-14.8-1.4-21.5-4.5-6.3-2.9-11.5-7.7-15.1-13.6-3.7-6.1-5.5-13.7-5.5-22.8-0.1-7.4 1.8-14.7 5.5-21.1 3.8-6.5 9.3-11.9 15.9-15.5 7-3.9 15.4-5.8 25.3-5.8 0.5 0 1.2 0 2.1 0.1s1.9 0.1 3.1 0.2v-31.6c0-0.7 0.3-1.1 1-1.1h20.3c0.5-0.1 0.9 0.3 1 0.7v0.2 95.2c0 1.8 0.1 3.8 0.2 6 0.2 2.1 0.3 4.1 0.4 5.8 0 0.7-0.3 1.3-1 1.6-5.2 2.2-10.7 3.8-16.3 4.8-5 0.9-10.2 1.4-15.4 1.4zm9.8-20v-44c-0.9-0.2-1.8-0.4-2.7-0.5-1.1-0.1-2.2-0.2-3.3-0.2-3.9 0-7.8 0.8-11.3 2.6-3.4 1.7-6.3 4.2-8.5 7.4s-3.3 7.5-3.3 12.7c-0.1 3.5 0.5 7 1.7 10.3 1 2.7 2.5 5.1 4.5 7.1 1.9 1.8 4.2 3.2 6.8 4 2.7 0.9 5.5 1.3 8.3 1.3 1.5 0 2.9-0.1 4.2-0.2 1.3 0.1 2.5-0.1 3.6-0.5z"
   id="path3"
   style="fill:#ffffff;fill-opacity:1" />
		</g>
	</g>

</svg>
